<svg id="visual" viewBox="0 0 900 600" width="900" height="600" xmlns="http://www.w3.org/2000/svg" xmlns:xlink="http://www.w3.org/1999/xlink" version="1.1"><path d="M0 489L11.5 490C23 491 46 493 69 488.2C92 483.3 115 471.7 138.2 474.5C161.3 477.3 184.7 494.7 207.8 501.3C231 508 254 504 277 498.2C300 492.3 323 484.7 346 487.2C369 489.7 392 502.3 415.2 508.8C438.3 515.3 461.7 515.7 484.8 515.5C508 515.3 531 514.7 554 500.5C577 486.3 600 458.7 623 446C646 433.3 669 435.7 692.2 450.2C715.3 464.7 738.7 491.3 761.8 494.7C785 498 808 478 831 476C854 474 877 490 888.5 498L900 506L900 601L888.5 601C877 601 854 601 831 601C808 601 785 601 761.8 601C738.7 601 715.3 601 692.2 601C669 601 646 601 623 601C600 601 577 601 554 601C531 601 508 601 484.8 601C461.7 601 438.3 601 415.2 601C392 601 369 601 346 601C323 601 300 601 277 601C254 601 231 601 207.8 601C184.7 601 161.3 601 138.2 601C115 601 92 601 69 601C46 601 23 601 11.5 601L0 601Z" fill="#A3B18A" stroke-linecap="round" stroke-linejoin="miter"></path></svg>